HIERARCHY
ROOT Hips
{
	OFFSET -211.153198 91.653587 -35.738949
	CHANNELS 6 Xposition Yposition Zposition Zrotation Yrotation Xrotation 
	JOINT RightUpLeg
	{
		OFFSET 0.103455 1.857827 10.548507
		CHANNELS 3 Xrotation Yrotation Zrotation
		JOINT RightLeg
		{
			OFFSET 43.500000 -0.000031 0.000008
			CHANNELS 3 Xrotation Yrotation Zrotation
			JOINT RightFoot
			{
				OFFSET 42.372192 0.000011 -0.000014
				CHANNELS 3 Xrotation Yrotation Zrotation
				JOINT RightToe
				{
					OFFSET 17.299997 -0.000002 0.000013
					CHANNELS 3 Xrotation Yrotation Zrotation
					End Site
					{
						OFFSET 0.000000 0.000000 0.000000
					}
				}
			}
		}
	}
	JOINT LeftUpLeg
	{
		OFFSET 0.103457 1.857826 -10.548499
		CHANNELS 3 Xrotation Yrotation Zrotation
		JOINT LeftLeg
		{
			OFFSET 43.500046 -0.000019 0.000015
			CHANNELS 3 Xrotation Yrotation Zrotation
			JOINT LeftFoot
			{
				OFFSET 42.372261 -0.000004 0.000013
				CHANNELS 3 Xrotation Yrotation Zrotation
				JOINT LeftToe
				{
					OFFSET 17.299992 -0.000006 0.000004
					CHANNELS 3 Xrotation Yrotation Zrotation
					End Site
					{
						OFFSET 0.000000 0.000000 0.000000
					}
				}
			}
		}
	}
	JOINT Spine
	{
		OFFSET 6.901968 -2.603730 -0.000002
		CHANNELS 3 Xrotation Yrotation Zrotation
		JOINT Spine1
		{
			OFFSET 12.588100 -0.000001 0.000009
			CHANNELS 3 Xrotation Yrotation Zrotation
			JOINT Spine2
			{
				OFFSET 12.343201 0.000005 -0.000005
				CHANNELS 3 Xrotation Yrotation Zrotation
				JOINT Neck
				{
					OFFSET 25.832893 -0.000008 -0.000006
					CHANNELS 3 Xrotation Yrotation Zrotation
					JOINT Head
					{
						OFFSET 11.766606 0.000005 0.000008
						CHANNELS 3 Xrotation Yrotation Zrotation
						End Site
						{
							OFFSET 0.000000 0.000000 0.000000
						}
					}
				}
				JOINT RightShoulder
				{
					OFFSET 19.745903 -1.480373 6.000100
					CHANNELS 3 Xrotation Yrotation Zrotation
					JOINT RightArm
					{
						OFFSET 11.284123 -0.000007 -0.000024
						CHANNELS 3 Xrotation Yrotation Zrotation
						JOINT RightForeArm
						{
							OFFSET 33.000053 0.000004 0.000036
							CHANNELS 3 Xrotation Yrotation Zrotation
							JOINT RightHand
							{
								OFFSET 25.200006 0.000021 -0.000003
								CHANNELS 3 Xrotation Yrotation Zrotation
								End Site
								{
									OFFSET 0.000000 0.000000 0.000000
								}
							}
						}
					}
				}
				JOINT LeftShoulder
				{
					OFFSET 19.746101 -1.480381 -6.000079
					CHANNELS 3 Xrotation Yrotation Zrotation
					JOINT LeftArm
					{
						OFFSET 11.284133 -0.000015 -0.000008
						CHANNELS 3 Xrotation Yrotation Zrotation
						JOINT LeftForeArm
						{
							OFFSET 33.000099 0.000016 0.000006
							CHANNELS 3 Xrotation Yrotation Zrotation
							JOINT LeftHand
							{
								OFFSET 25.199781 0.000142 0.000425
								CHANNELS 3 Xrotation Yrotation Zrotation
								End Site
								{
									OFFSET 0.000000 0.000000 0.000000
								}
							}
						}
					}
				}
			}
		}
	}
}
MOTION
Frames: 12
Frame Time: 0.033333
-215.244598 90.737839 46.740311 93.902609 -0.778568 -111.748896 175.546257 -5.749497 161.827863 -18.284244 -4.839703 -11.107126 80.368500 7.800032 0.042518 21.454562 0.003104 0.000017 162.443072 -0.554198 177.524458 -26.856601 2.502810 0.102682 68.281551 2.027444 6.125943 21.454553 -0.003099 0.000003 9.484185 -1.281418 -2.095679 9.002409 -2.395921 -4.285548 8.684971 -2.421871 -4.271050 1.510865 8.673245 1.990230 -12.776782 -9.965282 6.685267 -154.987019 -73.722555 -27.062599 -4.225630 56.651310 27.662766 -30.596242 -15.151569 1.277361 7.231018 -4.503969 13.041357 -155.567886 73.194001 26.520501 9.946075 -68.690789 -28.025470 -27.773747 15.666285 -1.231016 16.333955 -9.597682 -47.879691 
-215.256500 90.788300 47.310120 93.925005 -0.430229 -112.740188 175.209392 -6.061006 161.791431 -17.952203 -5.042898 -11.633190 80.015632 8.145096 -0.066824 21.454562 0.003104 0.000017 162.842898 -0.006895 178.656971 -24.939297 2.888057 0.368493 70.062004 1.571769 5.692107 21.454551 -0.003092 0.000001 9.453042 -1.345240 -2.130705 8.943510 -2.521772 -4.359986 8.626079 -2.548174 -4.344714 1.783234 8.460001 1.743294 -12.382711 -9.597474 6.219639 -156.695017 -73.780824 -25.310828 -8.238707 53.422509 26.304534 -29.986211 -14.623824 1.231501 6.952025 -3.393737 11.730232 -155.502138 73.202293 26.587710 7.445761 -68.359211 -26.329329 -28.355534 15.976565 -1.261312 13.975632 -6.637103 -45.594077 
-215.216507 90.901657 47.855740 94.033502 -0.073220 -113.561601 174.833554 -6.441296 161.508156 -17.744599 -4.995749 -11.920455 79.644821 8.313208 -0.234610 21.454558 0.003096 0.000016 163.545943 0.469409 -179.911650 -22.678405 2.961921 1.857433 70.771517 0.480848 5.804917 21.454553 -0.003093 -0.000002 9.399306 -1.361668 -2.095605 8.836009 -2.559350 -4.290055 8.518521 -2.585330 -4.274559 2.254012 8.286286 1.343411 -12.507092 -9.264005 5.652850 -159.085693 -73.993133 -22.856851 -12.737576 50.262102 24.360249 -28.398660 -13.978247 1.160207 7.306137 -2.389152 10.976913 -155.611380 73.356484 26.472311 5.031066 -68.331419 -24.465176 -29.196631 16.359601 -1.301402 12.247349 -3.107819 -42.772465 
-215.139099 91.026703 48.358261 94.132684 0.281060 -114.315804 174.454124 -6.812391 160.944966 -17.617713 -4.789575 -12.011284 79.310661 8.340432 -0.417281 21.454558 0.003111 0.000017 164.243647 0.932603 -178.028280 -20.728933 2.411350 3.373333 70.578694 -0.663247 5.630955 21.454551 -0.003091 0.000000 9.319527 -1.357631 -2.012806 8.674536 -2.560597 -4.122655 8.356987 -2.585558 -4.107156 2.804648 8.249090 0.931367 -12.968880 -8.901996 5.109319 -161.948006 -74.492140 -19.917429 -16.806521 47.598608 21.513440 -26.946348 -13.571652 1.108482 8.504444 -0.827727 11.595080 -155.888700 73.450591 26.185888 2.212254 -68.315415 -22.270848 -30.205357 16.849568 -1.352189 11.328077 -0.449221 -40.443452 
-215.033096 91.109077 48.766430 94.223423 0.474039 -115.142906 174.260624 -7.126400 160.491100 -17.577801 -4.621668 -12.208526 79.079992 8.422938 -0.660455 21.454555 0.003109 0.000019 164.752523 1.392512 -176.720899 -19.712269 1.658627 4.963656 70.620140 -1.781282 5.719938 21.454558 -0.003091 0.000000 9.248670 -1.338525 -1.903989 8.529813 -2.533108 -3.902302 8.212180 -2.556741 -3.886976 3.187930 8.157334 0.496550 -13.352724 -8.476755 4.514536 -164.679508 -74.948321 -17.116300 -20.389513 45.409823 18.007847 -25.866971 -13.381112 1.078241 9.607763 0.008174 13.918600 -156.202656 73.708191 25.858599 -1.123885 -68.322505 -19.228651 -31.438582 17.308978 -1.406427 10.960675 0.840426 -38.618788 
-214.896698 91.138130 49.076969 94.285331 0.457708 -116.105102 174.353010 -7.328206 159.975885 -17.527657 -4.465415 -12.459126 78.906416 8.526422 -0.953638 21.454555 0.003115 0.000020 165.162020 2.162001 -176.270517 -19.522183 1.260304 6.238607 70.927000 -2.694945 5.769789 21.454551 -0.003096 -0.000000 9.201667 -1.316085 -1.805035 8.432904 -2.497197 -3.701943 8.115214 -2.519628 -3.686827 3.370473 8.009560 0.069063 -13.558712 -8.131105 3.942048 -166.740805 -75.222130 -15.005212 -23.251677 43.574681 13.960855 -25.618687 -13.351121 1.072297 10.088261 -0.149821 17.613301 -157.155836 74.124006 24.873394 -4.810476 -68.177828 -15.603699 -32.952845 17.757116 -1.467256 10.473052 0.695191 -37.819758 
-214.703598 91.103363 49.296730 94.278501 0.261513 -117.121693 174.613144 -7.413099 159.485750 -17.580804 -4.324376 -12.758340 78.825478 8.642037 -1.318636 21.454558 0.003109 0.000017 165.299881 3.214798 -175.137689 -20.437698 0.916727 6.910266 71.463750 -3.237478 5.642521 21.454550 -0.003084 0.000001 9.172190 -1.295984 -1.739407 8.371916 -2.462786 -3.568703 8.054177 -2.484411 -3.553802 3.426893 7.952806 -0.312982 -13.653683 -7.916265 3.472217 -167.730622 -75.487278 -13.991798 -25.578263 42.168335 10.982610 -26.177870 -13.815995 1.111188 10.273147 -1.247616 19.741810 -158.267258 74.430388 23.729281 -8.470535 -67.683008 -12.247334 -35.197823 18.248261 -1.549538 10.718911 -0.382705 -38.721572 
-214.452194 91.035263 49.442120 94.228067 -0.023018 -118.089709 174.926773 -7.404302 159.285981 -17.713447 -4.193086 -13.199761 78.797215 8.829570 -1.785903 21.454555 0.003111 0.000019 165.313145 4.538603 -174.231200 -22.006871 0.993462 7.427833 71.945401 -3.665202 5.525656 21.454551 -0.003095 0.000000 9.145827 -1.261670 -1.705598 8.317280 -2.397561 -3.498119 7.999524 -2.418773 -3.483593 3.392643 8.028899 -0.714858 -13.463170 -7.865015 3.039965 -168.270002 -75.838152 -13.439600 -27.235820 41.219341 8.897934 -27.359281 -14.376208 1.167141 9.775177 -2.985016 18.658682 -159.019440 74.564007 22.956816 -12.036847 -66.981049 -9.340329 -37.534656 18.873049 -1.646573 10.431383 -1.550101 -40.194792 
-214.156006 90.951607 49.552582 94.114064 -0.308897 -119.019899 175.182304 -7.306704 159.276282 -17.909593 -4.008662 -13.739761 78.777585 9.059887 -2.353876 21.454560 0.003115 0.000017 165.111040 5.837799 -172.703888 -24.088672 0.659931 7.648601 72.219251 -3.848732 5.450750 21.454557 -0.003096 0.000000 9.102920 -1.214787 -1.692398 8.229623 -2.306216 -3.467485 7.911867 -2.327228 -3.453521 3.468120 8.086929 -1.118677 -13.216599 -7.770839 2.576861 -168.821676 -76.211292 -12.875470 -28.345003 40.696801 6.757894 -28.983966 -14.870387 1.228183 8.982079 -4.802968 16.113154 -159.724206 74.614312 22.234311 -15.054642 -66.297805 -6.776371 -40.034624 19.381319 -1.744507 9.654537 -2.159108 -41.819609 
-213.785599 90.848923 49.633789 93.976887 -0.631272 -119.909503 175.460306 -7.221206 158.953897 -18.200753 -3.749030 -14.069273 78.784866 9.139996 -2.936126 21.454562 0.003099 0.000016 164.790430 7.076196 -170.547406 -26.620642 -0.010150 7.697107 72.773118 -3.958434 5.221090 21.454555 -0.003104 -0.000002 9.068070 -1.153934 -1.689807 8.157829 -2.185941 -3.457269 7.840102 -2.206917 -3.444027 3.570658 7.933016 -1.516362 -13.128418 -7.251867 1.960082 -168.957502 -76.455437 -12.736623 -29.142368 40.603528 4.759788 -31.197487 -15.562062 1.315811 8.819407 -6.146756 12.178460 -160.132556 74.609305 21.816297 -17.743838 -65.668546 -4.397949 -42.597530 19.617345 -1.830862 9.128077 -1.979032 -42.951791 
-213.336594 90.750412 49.688900 93.877433 -0.957125 -120.895305 175.844887 -7.275103 158.256412 -18.522621 -3.542078 -14.212288 78.817548 9.098731 -3.498704 21.454557 0.003114 0.000016 164.529094 8.144505 -167.853415 -28.990987 -0.717798 8.125990 73.174808 -4.192768 5.452528 21.454551 -0.003085 0.000001 9.044532 -1.074920 -1.685212 8.108044 -2.029192 -3.442017 7.790347 -2.050063 -3.429722 3.603437 7.687230 -1.818608 -12.945645 -6.750280 1.434146 -168.730493 -76.428663 -12.968398 -29.707440 40.606636 3.151477 -33.646396 -16.147710 1.405605 8.936882 -6.778706 8.357622 -160.412238 74.566213 21.530491 -20.713206 -64.977871 -2.352316 -44.340724 19.682811 -1.885831 8.316716 -0.997015 -42.586967 
-212.834000 90.653847 49.717579 93.762119 -1.272991 -122.019403 176.263946 -7.338395 157.405111 -18.868500 -3.301336 -14.342456 78.830956 9.031959 -4.135296 21.454562 0.003105 0.000017 164.343026 8.968799 -164.688797 -31.019536 -1.273372 8.794723 73.406188 -4.706839 5.329437 21.454550 -0.003089 0.000000 9.020417 -0.993093 -1.667515 8.056837 -1.867762 -3.400466 7.739174 -1.888383 -3.389147 3.687850 7.506690 -1.998697 -12.746832 -6.395887 1.088709 -169.146384 -76.299155 -12.543712 -29.755180 40.845225 1.860427 -36.186411 -16.745355 1.502869 8.505133 -7.047423 6.000996 -160.974226 74.475119 20.956226 -24.020852 -64.309148 -0.320227 -45.099842 19.675080 -1.907968 7.509857 0.045927 -41.496609 
